<svg xmlns="http://www.w3.org/2000/svg" viewBox="0 0 256 256" role="img" aria-label="Telegram Media Downloader">
  <defs>
    <linearGradient id="bg" x1="44" y1="24" x2="216" y2="232" gradientUnits="userSpaceOnUse">
      <stop offset="0" stop-color="#24A8FF"/>
      <stop offset="1" stop-color="#1666F5"/>
    </linearGradient>
    <linearGradient id="mark" x1="67" y1="70" x2="190" y2="181" gradientUnits="userSpaceOnUse">
      <stop offset="0" stop-color="#FFFFFF"/>
      <stop offset="1" stop-color="#DCEEFF"/>
    </linearGradient>
  </defs>
  <rect x="18" y="18" width="220" height="220" rx="52" fill="url(#bg)"/>
  <path d="M195.9 65.6 54.4 120.4c-9.6 3.7-9.5 17.3.2 20.8l35.9 13.1 13.8 43.2c3 9.5 15.4 11.9 21.8 4.2l20.8-25.1 37.2 27.4c8.7 6.4 21.1 1.4 23-9.2l28.7-111.4c2.6-10.5-9.8-18.1-19.9-17.8Z" fill="#0B4FD8" opacity=".24"/>
  <path d="M196.3 58.4 56.6 112.5c-10.1 3.9-10 18.2.3 21.9l36.2 13.1 13.7 43.1c3 9.4 15.2 11.9 21.5 4.4l20.8-24.8 37.3 27.4c8.7 6.4 21.1 1.4 22.9-9.2l22.1-114.1c1.9-9.9-8.8-19.7-19.1-15.9Z" fill="url(#mark)"/>
  <path d="M97.4 146.1 204.1 75.2c2.2-1.5 4.6 1.5 2.7 3.4l-85.6 84.9-5.3 28.5-18.5-45.9Z" fill="#62BFFF"/>
  <path d="M121.2 163.5 97.4 146.1l106.7-70.9-83 87.9c-.1.1 0 .3.1.4Z" fill="#1587FF"/>
  <path d="M139.1 116.2v45.9h-18.4v-45.9H98.6L130 84.8l31.4 31.4h-22.3Z" fill="#FFFFFF"/>
  <path d="M112.5 181.7h35" stroke="#FFFFFF" stroke-width="13" stroke-linecap="round"/>
</svg>
